<?xml version="1.0" standalone="no"?>
<!DOCTYPE svg PUBLIC "-//W3C//DTD SVG 20010904//EN"
 "http://www.w3.org/TR/2001/REC-SVG-20010904/DTD/svg10.dtd">
<svg version="1.0" xmlns="http://www.w3.org/2000/svg"
 width="2060.000000pt" height="2084.000000pt" viewBox="0 0 2060.000000 2084.000000"
 preserveAspectRatio="xMidYMid meet">

<g transform="translate(0.000000,2084.000000) scale(0.100000,-0.100000)"
fill="#000000" stroke="none">
<path d="M11593 20232 c-606 -224 -1099 -410 -1094 -415 4 -4 477 -252 1052
-552 l1044 -545 9 158 c4 86 10 159 11 160 7 7 306 -82 551 -163 1912 -635
3574 -1915 4690 -3610 1315 -1999 1781 -4436 1298 -6789 -159 -774 -404 -1482
-761 -2196 -325 -652 -689 -1211 -1138 -1750 -301 -361 -703 -771 -1045 -1066
-1522 -1313 -3395 -2070 -5412 -2185 -272 -15 -989 -7 -1233 15 -784 70 -1441
206 -2155 446 -598 200 -1199 478 -1760 814 -313 187 -704 460 -1009 705 -457
366 -943 847 -1321 1306 -991 1205 -1657 2653 -1920 4177 -94 541 -131 988
-131 1563 0 372 9 574 42 905 255 2574 1608 4913 3724 6437 1034 744 2232
1266 3481 1516 l219 44 3 39 c4 52 -35 1085 -41 1091 -3 2 -72 -8 -153 -22
-1760 -312 -3381 -1064 -4744 -2201 -2052 -1711 -3344 -4140 -3609 -6784 -40
-393 -46 -537 -46 -1030 0 -489 6 -608 46 -1020 149 -1543 673 -3065 1514
-4399 589 -935 1358 -1798 2223 -2495 955 -769 2051 -1365 3212 -1744 1074
-352 2181 -518 3320 -499 373 7 523 15 860 48 3005 292 5746 1940 7435 4469
1347 2015 1925 4429 1640 6845 -230 1948 -1011 3767 -2269 5285 -369 445 -859
937 -1311 1316 -1148 962 -2550 1680 -3990 2044 -71 18 -134 36 -138 40 -5 4
-3 95 3 201 7 107 10 206 8 221 l-3 26 -1102 -406z"/>
<path d="M9923 18305 c-148 -27 -235 -66 -297 -135 -21 -23 -36 -43 -34 -45 2
-2 26 7 54 21 108 53 212 41 280 -32 l40 -45 67 45 c94 63 166 88 268 94 66 3
100 0 140 -13 274 -90 385 -428 208 -629 -47 -54 -108 -95 -298 -201 -237
-132 -338 -202 -455 -314 -152 -148 -245 -299 -303 -491 -35 -116 -42 -299
-19 -459 23 -156 85 -394 135 -523 44 -111 114 -231 119 -204 2 8 -8 89 -22
180 -58 368 -57 551 4 740 44 135 106 234 219 347 102 102 171 152 371 269
441 259 543 370 566 622 12 132 -34 321 -107 445 -46 77 -155 191 -221 230
-158 94 -487 140 -715 98z"/>
<path d="M10177 18113 c-58 -22 -112 -64 -133 -104 -8 -17 -14 -32 -12 -34 2
-2 35 11 73 28 65 30 78 32 175 32 l105 0 119 -58 c65 -31 123 -57 128 -57 5
0 -1 19 -14 42 -28 52 -104 111 -178 139 -77 30 -200 35 -263 12z"/>
<path d="M9745 18053 c-100 -23 -176 -86 -200 -162 l-7 -24 33 26 c112 83 223
116 276 82 15 -10 34 -27 41 -37 7 -10 22 -18 33 -18 16 0 19 4 14 23 -22 74
-115 128 -190 110z"/>
<path d="M10305 17871 c-56 -25 -102 -67 -125 -112 l-20 -38 59 -35 c68 -41
71 -42 71 -18 0 13 13 22 49 31 71 18 94 47 99 126 l4 65 -48 0 c-27 0 -67 -9
-89 -19z"/>
<path d="M9626 17801 c-2 -3 1 -34 6 -67 l10 -61 59 -17 c32 -9 70 -16 84 -16
25 0 75 39 75 58 0 19 -41 60 -76 77 -38 18 -152 36 -158 26z"/>
<path d="M9963 17645 c-47 -33 -37 -139 18 -198 l29 -32 25 30 c28 34 67 130
63 154 -4 20 -65 61 -92 61 -12 0 -31 -7 -43 -15z"/>
<path d="M10867 17164 c-3 -3 -17 -30 -32 -59 -42 -87 -120 -148 -448 -351
-284 -175 -398 -302 -467 -519 -42 -130 -38 -481 7 -662 24 -97 30 -83 58 128
31 239 99 358 326 571 66 62 167 168 225 236 58 67 107 122 109 122 2 0 -2
-17 -10 -39 -30 -86 -111 -200 -355 -501 -60 -74 -122 -157 -137 -185 l-27
-50 43 34 c138 109 636 625 689 714 56 92 65 148 58 337 -7 205 -14 248 -39
224z"/>
<path d="M16046 15564 c-241 -37 -464 -135 -671 -293 -450 -345 -720 -894
-666 -1359 50 -428 272 -637 753 -708 139 -20 349 -14 483 15 256 56 467 167
656 348 203 195 344 458 390 732 18 106 14 312 -9 421 -54 262 -191 466 -370
551 -54 26 -83 34 -148 37 -125 7 -235 -33 -391 -140 -66 -46 -203 -178 -203
-196 0 -4 28 -24 61 -46 276 -176 429 -445 429 -754 0 -117 -19 -204 -66 -297
-49 -101 -111 -167 -192 -207 -62 -31 -74 -33 -167 -33 -95 0 -103 2 -163 34
-121 66 -207 188 -254 358 -29 107 -32 416 -5 540 54 254 182 502 332 649 90
87 183 137 361 193 139 44 174 66 174 115 0 21 -7 30 -35 42 -43 18 -177 17
-299 -2z"/>
<path d="M12560 14920 c-885 -83 -1702 -1090 -1914 -2360 -40 -236 -49 -385
-43 -673 10 -464 73 -767 222 -1066 190 -378 464 -610 832 -703 76 -19 115
-23 278 -23 208 0 272 10 435 67 301 106 578 337 845 703 287 393 537 984 659
1559 73 340 100 588 100 911 0 268 -12 388 -59 575 -110 440 -378 805 -664
906 -50 18 -88 24 -157 24 -76 0 -101 4 -149 25 -108 48 -246 68 -385 55z
m210 -248 c0 -5 -11 -15 -25 -22 -26 -14 -122 -117 -194 -209 -46 -59 -91
-141 -91 -165 0 -8 35 -42 79 -75 135 -103 240 -238 339 -436 98 -198 162
-409 199 -660 28 -190 25 -755 -5 -1004 -66 -537 -177 -938 -309 -1111 -68
-89 -121 -120 -206 -120 -246 1 -618 497 -748 995 -49 189 -63 322 -63 595 0
326 30 580 109 905 157 655 485 1179 809 1296 54 19 106 25 106 11z"/>
<path d="M8980 14464 c-211 -34 -464 -97 -604 -152 -177 -68 -309 -271 -631
-972 -481 -1045 -729 -1798 -786 -2385 -16 -163 -6 -432 20 -551 77 -354 245
-579 534 -714 166 -78 337 -110 590 -110 362 0 608 53 905 195 287 138 503
310 679 541 301 396 505 877 584 1384 18 116 23 187 23 355 1 313 -28 469
-124 660 -113 225 -295 378 -535 451 -123 37 -305 39 -440 5 -165 -40 -395
-168 -602 -335 -45 -36 -84 -66 -87 -66 -15 0 2 31 102 187 60 92 164 256 232
363 173 274 309 473 386 566 229 273 280 385 221 489 -16 30 -37 48 -81 70
-54 26 -69 29 -175 32 -68 1 -155 -4 -211 -13z m-341 -2099 c233 -55 431 -276
519 -580 115 -398 99 -1014 -34 -1276 -30 -60 -92 -113 -152 -130 -77 -23
-223 -16 -317 15 -118 38 -236 109 -332 200 -104 98 -169 184 -233 308 -195
377 -200 808 -14 1187 46 93 69 126 128 186 56 57 82 76 121 88 66 20 231 21
314 2z"/>
<path d="M5133 13909 c-530 -51 -1064 -395 -1307 -842 -72 -132 -108 -252
-114 -382 -5 -122 8 -194 54 -291 78 -166 320 -373 455 -391 89 -12 108 10
133 162 84 499 386 1055 573 1055 86 0 138 -123 149 -355 16 -316 -124 -665
-397 -985 -137 -162 -167 -226 -135 -288 24 -46 64 -62 180 -72 203 -18 324
-62 423 -154 73 -68 119 -145 151 -249 22 -70 25 -102 26 -222 0 -149 -14
-230 -70 -393 -148 -433 -594 -954 -847 -988 l-42 -6 -32 54 c-180 299 -185
848 -9 1196 30 60 57 99 159 230 34 44 35 85 2 117 -33 34 -111 33 -241 -1
-541 -140 -1034 -738 -1034 -1254 0 -446 290 -812 743 -938 100 -28 400 -24
535 6 421 94 825 329 1206 701 548 536 912 1229 883 1679 -19 292 -167 504
-427 608 -148 60 -377 92 -572 79 -60 -4 -108 -3 -108 2 0 4 46 36 103 71 356
220 553 415 638 637 50 130 62 202 56 355 -10 253 -90 437 -260 597 -158 147
-376 239 -626 263 -116 11 -128 11 -248 -1z"/>
<path d="M12970 9662 c-68 -34 -113 -141 -114 -272 -1 -88 17 -131 63 -150 72
-29 152 24 192 129 29 74 32 210 6 259 -28 52 -85 66 -147 34z"/>
<path d="M13990 9324 c-201 -56 -434 -277 -545 -518 -62 -134 -80 -209 -80
-336 0 -105 2 -119 27 -165 55 -104 137 -154 254 -155 56 0 81 5 125 27 71 35
203 168 294 297 l69 99 17 -84 c20 -100 37 -143 73 -186 48 -57 118 -65 214
-23 45 20 152 115 152 135 0 7 -9 34 -21 60 -30 68 -56 207 -70 369 -14 163
-23 186 -75 186 -30 0 -35 3 -30 17 47 122 13 215 -96 264 -68 30 -225 37
-308 13z m3 -172 c50 -55 60 -157 26 -250 -37 -100 -37 -102 5 -102 20 0 59 9
88 20 28 11 53 18 55 17 1 -2 -35 -50 -82 -108 -93 -118 -184 -206 -222 -215
-36 -9 -70 13 -94 63 -32 66 -24 199 19 308 50 127 150 285 180 285 5 0 16 -8
25 -18z"/>
<path d="M12953 9160 c-143 -87 -230 -761 -125 -966 45 -88 122 -133 193 -114
67 18 89 70 129 302 50 299 48 595 -6 705 -42 86 -120 117 -191 73z"/>
<path d="M12370 9106 c-175 -47 -398 -367 -456 -655 -23 -115 -16 -257 16
-324 28 -60 106 -130 167 -151 68 -23 166 -20 233 7 114 47 225 146 281 251
30 55 33 69 34 146 0 108 -13 114 -78 31 -51 -66 -135 -138 -173 -147 -62 -16
-94 17 -120 118 -34 133 20 474 85 532 23 21 29 13 37 -56 4 -36 1 -75 -10
-117 -22 -88 -21 -101 9 -101 66 0 149 72 193 169 64 139 23 267 -95 300 -47
13 -66 13 -123 -3z"/>
<path d="M7505 8926 c-108 -21 -195 -60 -195 -88 0 -5 17 -32 39 -60 l38 -51
-89 -221 c-48 -121 -116 -293 -150 -381 -33 -88 -64 -164 -68 -168 -4 -4 -35
-15 -69 -22 -83 -20 -103 -35 -161 -122 -77 -116 -67 -173 33 -190 20 -3 37
-7 37 -10 0 -2 -30 -62 -66 -134 -98 -195 -98 -229 5 -229 107 0 210 41 272
107 48 51 71 92 110 198 18 50 35 93 39 97 3 4 71 15 150 23 177 19 218 28
298 67 34 17 64 29 66 27 2 -2 21 -38 41 -79 90 -180 153 -248 245 -265 76
-14 182 33 294 129 l39 34 -55 78 c-83 119 -206 334 -266 469 -30 66 -83 209
-118 317 -140 429 -231 520 -469 474z m105 -699 c39 -110 68 -203 64 -207 -10
-9 -282 -45 -289 -39 -2 3 28 107 67 232 40 125 75 224 78 220 4 -5 40 -97 80
-206z"/>
<path d="M10960 8887 c-101 -53 -173 -265 -216 -637 -18 -163 -15 -325 8 -380
20 -46 79 -97 122 -105 43 -8 96 8 124 38 11 12 46 67 77 122 78 136 278 434
287 429 5 -3 8 -38 8 -77 1 -174 80 -338 183 -376 71 -27 167 -2 246 65 39 32
38 54 -2 150 -35 81 -56 206 -67 404 -5 91 -14 189 -21 219 -15 70 -51 110
-104 118 -117 15 -208 -59 -375 -309 -36 -54 -67 -97 -70 -98 -3 0 -4 71 -2
159 4 179 -5 230 -48 273 -36 35 -89 37 -150 5z"/>
<path d="M10219 8816 c-279 -98 -498 -445 -499 -792 0 -150 42 -245 133 -298
173 -101 409 -17 649 232 127 131 141 170 72 192 -52 17 -73 8 -162 -73 -125
-112 -220 -149 -271 -103 -30 27 -26 36 17 36 55 0 128 47 213 138 131 140
194 278 192 422 -2 219 -141 318 -344 246z m40 -187 c17 -51 13 -214 -9 -312
-11 -49 -35 -118 -55 -156 -37 -71 -79 -120 -92 -107 -4 4 -9 51 -11 105 -5
113 12 214 60 359 45 136 84 176 107 111z"/>
<path d="M9132 8640 c-286 -75 -593 -408 -668 -725 -19 -80 -18 -209 2 -276
30 -101 131 -171 223 -154 100 18 213 99 396 284 61 61 113 111 118 111 12 0
7 -210 -8 -318 -20 -142 -52 -271 -76 -311 -19 -32 -21 -33 -37 -17 -27 27
-24 229 6 323 38 121 31 126 -73 56 -210 -140 -313 -319 -257 -446 35 -79 117
-137 192 -136 115 0 322 133 430 276 94 124 149 271 185 492 19 124 30 312 21
385 -9 66 -39 106 -79 106 l-23 0 17 68 c10 37 18 83 18 102 2 91 -48 164
-126 188 -59 18 -177 14 -261 -8z m43 -220 c-1 -87 -17 -152 -57 -233 -33 -67
-28 -73 53 -64 l51 6 -118 -122 c-137 -142 -180 -178 -200 -170 -56 21 -41
215 31 385 61 145 170 283 218 276 20 -3 22 -9 22 -78z"/>
<path d="M14787 7520 c-40 -12 -55 -27 -82 -79 -33 -66 -48 -147 -43 -231 3
-67 6 -75 36 -101 59 -53 137 -30 192 57 64 101 68 292 7 342 -20 17 -75 23
-110 12z"/>
<path d="M15803 7175 c-121 -33 -239 -111 -359 -237 -177 -187 -277 -411 -278
-623 -1 -89 2 -106 27 -157 52 -105 136 -157 256 -158 64 0 81 4 134 32 77 41
167 131 259 257 40 54 78 107 84 117 11 18 12 17 17 -6 40 -196 67 -253 132
-284 75 -36 181 0 271 91 l53 54 -20 47 c-32 74 -57 194 -74 354 -8 81 -15
156 -15 167 0 29 -27 51 -65 51 l-33 0 14 38 c56 158 -61 273 -277 271 -41 0
-98 -7 -126 -14z m-18 -161 c9 -4 25 -25 37 -48 30 -58 28 -150 -6 -238 -22
-58 -23 -68 -10 -78 14 -12 66 0 158 36 20 8 -80 -123 -158 -206 -120 -128
-162 -146 -209 -90 -38 45 -50 94 -44 174 9 120 93 316 179 421 33 39 30 37
53 29z"/>
<path d="M12137 7126 c-55 -20 -116 -65 -149 -110 -30 -42 -81 -190 -100 -295
-11 -56 -16 -66 -48 -86 -76 -48 -120 -122 -120 -200 0 -61 13 -83 55 -91 19
-3 35 -11 35 -18 0 -6 -9 -85 -20 -176 -11 -91 -20 -197 -20 -237 0 -266 192
-397 418 -287 64 31 152 114 181 171 11 23 21 44 21 46 0 2 -29 3 -64 3 -79
-1 -110 18 -146 90 -24 47 -25 57 -25 245 0 204 5 229 44 229 10 0 39 11 67
25 67 34 97 80 102 160 4 56 2 64 -19 79 -14 10 -44 16 -76 16 -28 0 -54 4
-57 8 -6 11 21 162 44 248 20 72 26 140 12 160 -22 34 -74 41 -135 20z"/>
<path d="M11336 7028 c-40 -40 -75 -131 -83 -214 -7 -80 2 -126 33 -164 21
-24 34 -30 65 -30 55 0 91 21 127 76 40 59 55 131 51 227 -6 105 -25 131 -103
135 -53 3 -59 1 -90 -30z"/>
<path d="M14763 7014 c-91 -45 -174 -357 -176 -664 -2 -244 38 -355 145 -408
72 -36 142 -11 172 61 56 135 105 649 78 821 -26 162 -116 240 -219 190z"/>
<path d="M14268 6969 c-10 -5 -32 -30 -49 -55 l-31 -46 -19 31 c-59 98 -194
41 -248 -103 -54 -147 -95 -570 -72 -754 14 -111 33 -164 73 -197 55 -47 150
-24 227 55 65 67 75 107 67 268 -22 476 -21 511 9 481 14 -14 36 -93 56 -201
6 -32 18 -67 28 -80 l18 -22 26 26 c67 67 92 340 47 508 -21 76 -83 118 -132
89z"/>
<path d="M9859 6820 c-23 -24 -45 -61 -55 -93 -19 -62 -29 -172 -20 -220 20
-109 151 -118 221 -15 70 103 74 321 7 357 -12 6 -42 11 -68 11 -42 0 -51 -4
-85 -40z"/>
<path d="M13260 6834 c-241 -43 -473 -238 -609 -510 -64 -129 -94 -241 -95
-359 -1 -124 21 -183 96 -250 88 -79 206 -96 313 -45 66 31 203 169 289 290
37 52 70 93 74 91 4 -2 12 -34 18 -70 14 -84 47 -161 85 -197 23 -22 40 -29
89 -32 78 -6 147 27 218 102 l51 53 -25 60 c-33 84 -51 178 -70 366 -9 89 -21
168 -26 175 -6 6 -27 12 -48 12 l-38 0 14 38 c41 116 -7 215 -126 257 -46 16
-166 27 -210 19z m-61 -200 c11 -14 25 -49 31 -77 12 -54 3 -116 -33 -212 -8
-22 -13 -44 -10 -49 8 -12 82 0 137 23 l47 21 -63 -82 c-82 -106 -181 -212
-224 -239 -30 -18 -39 -20 -64 -9 -69 29 -96 139 -66 272 30 133 166 378 211
378 7 0 23 -12 34 -26z"/>
<path d="M9210 6761 c-97 -31 -198 -141 -302 -326 -175 -311 -288 -736 -258
-969 25 -201 147 -316 334 -316 122 0 232 48 330 143 98 96 162 224 172 341 7
82 -5 120 -38 124 -23 3 -32 -7 -74 -79 -63 -105 -114 -163 -178 -199 -115
-67 -153 -23 -163 191 -7 137 5 245 53 493 46 234 108 406 136 378 15 -15 11
-229 -6 -352 -22 -155 -42 -243 -82 -355 -46 -129 -51 -153 -31 -161 73 -28
250 158 325 339 49 120 64 195 69 338 8 204 -29 316 -124 383 -44 31 -115 43
-163 27z"/>
<path d="M8073 6671 c-132 -45 -236 -160 -338 -374 -143 -298 -223 -667 -196
-894 25 -203 98 -322 237 -385 69 -31 194 -30 279 2 196 75 348 260 410 500
55 213 30 467 -57 565 -82 94 -197 55 -271 -92 -34 -67 -76 -202 -88 -287 -19
-129 22 -205 105 -192 l39 7 -5 -83 c-9 -133 -54 -208 -125 -208 -72 0 -132
101 -154 259 -37 255 53 838 158 1019 31 55 54 53 66 -6 13 -65 -16 -189 -69
-300 -24 -51 -42 -98 -38 -104 10 -16 81 -1 137 30 71 39 151 123 189 200 107
217 -58 420 -279 343z"/>
<path d="M11377 6560 c-41 -13 -55 -27 -88 -92 -71 -140 -114 -395 -106 -628
5 -172 18 -231 67 -299 55 -75 125 -100 190 -66 44 23 67 78 94 227 37 200 49
338 45 530 -4 165 -5 176 -32 230 -42 85 -102 120 -170 98z"/>
<path d="M10719 6473 c-144 -71 -305 -300 -385 -545 -35 -109 -45 -295 -20
-379 30 -105 134 -190 252 -205 151 -19 363 114 445 281 28 58 33 78 34 144 0
70 -2 76 -21 79 -15 2 -29 -9 -49 -39 -41 -58 -141 -146 -182 -160 -30 -10
-39 -9 -62 8 -14 11 -34 36 -45 57 -36 73 -32 282 10 442 17 68 54 147 71 152
28 8 34 -125 8 -210 -12 -42 -13 -55 -2 -65 20 -20 78 1 130 48 98 86 140 240
91 334 -44 84 -168 111 -275 58z"/>
<path d="M9902 6359 c-46 -14 -87 -75 -121 -183 -52 -163 -66 -270 -66 -491 0
-230 11 -283 71 -353 60 -71 121 -89 184 -57 53 28 73 87 116 355 20 126 30
466 15 544 -27 145 -101 213 -199 185z"/>
<path d="M5405 6244 c-109 -18 -291 -79 -340 -112 -90 -63 -122 -168 -62 -206
12 -8 33 -3 84 21 37 18 79 35 92 39 22 6 23 4 17 -21 -13 -53 -137 -712 -167
-890 -17 -99 -33 -232 -36 -295 -5 -108 -4 -116 16 -137 33 -35 93 -31 179 12
173 87 227 184 262 470 18 154 135 845 142 845 3 0 26 -15 50 -33 29 -22 54
-55 78 -101 34 -67 35 -72 35 -185 0 -158 -21 -204 -147 -327 -106 -103 -124
-136 -92 -168 24 -25 117 -20 187 8 166 68 273 167 347 319 67 139 84 208 85
343 0 108 -1 112 -38 186 -59 120 -156 194 -303 233 -73 19 -278 19 -389 -1z"/>
<path d="M6615 5938 c-58 -16 -136 -99 -164 -173 -64 -170 -104 -442 -99 -670
4 -184 20 -238 80 -275 51 -31 96 -26 164 18 73 48 256 214 347 316 38 42 72
76 76 76 5 0 11 -28 13 -62 3 -35 12 -83 19 -108 18 -61 82 -125 139 -140 86
-23 228 10 280 65 l22 23 -25 114 c-34 151 -45 232 -57 423 -12 178 -20 220
-51 259 -16 20 -29 26 -58 26 -88 0 -194 -113 -466 -497 -56 -80 -83 -102
-106 -88 -15 10 -4 65 54 265 74 253 71 350 -13 411 -31 24 -103 31 -155 17z"/>
<path d="M15570 4919 c-30 -16 -113 -69 -185 -117 -129 -86 -130 -87 -139
-134 -10 -53 3 -98 29 -98 9 0 38 11 65 25 28 14 50 24 50 22 0 -2 -21 -91
-46 -197 -25 -107 -63 -278 -84 -380 -43 -207 -43 -210 24 -243 56 -28 120
-10 191 55 69 63 75 82 120 393 20 132 49 309 66 394 17 84 31 180 32 213 2
52 -1 62 -22 79 -30 25 -36 24 -101 -12z"/>
<path d="M14756 4845 c-194 -24 -207 -26 -231 -49 -29 -26 -56 -112 -91 -292
-39 -204 -28 -221 118 -178 63 18 104 25 135 21 145 -16 165 -230 41 -437 -34
-56 -90 -103 -117 -98 -30 6 -45 59 -45 163 0 107 16 174 60 251 20 35 21 44
10 54 -33 27 -158 -37 -216 -110 -51 -64 -64 -106 -65 -205 0 -81 3 -96 30
-150 41 -82 99 -118 196 -123 60 -4 77 -1 126 24 117 57 271 245 334 409 40
103 51 231 25 299 -20 52 -69 99 -121 116 -63 21 -179 8 -259 -29 -38 -17 -70
-30 -72 -29 -1 2 8 28 20 58 l22 55 61 7 c78 8 127 34 185 95 72 78 98 143 62
157 -22 9 -82 6 -208 -9z"/>
<path d="M13815 4722 c-77 -27 -138 -66 -189 -123 -52 -58 -82 -139 -71 -190
8 -37 57 -94 98 -116 28 -14 32 -14 43 1 6 9 15 36 18 60 9 58 75 185 109 210
28 21 29 21 43 2 9 -13 14 -44 14 -85 0 -77 -33 -157 -94 -230 -20 -24 -36
-51 -34 -59 2 -10 24 -20 61 -27 86 -17 120 -54 125 -137 3 -47 -2 -77 -17
-118 -41 -109 -171 -247 -210 -223 -24 15 -40 70 -40 143 -1 78 11 125 44 174
33 49 32 66 -3 66 -78 0 -205 -98 -251 -194 -95 -195 65 -387 281 -336 175 41
358 201 455 397 31 62 38 90 41 147 3 61 1 76 -20 105 -37 55 -69 72 -159 86
-46 7 -79 13 -72 14 6 1 38 21 71 46 199 149 117 405 -128 405 -36 -1 -88 -8
-115 -18z"/>
<path d="M12883 4595 c-99 -30 -187 -106 -226 -194 -39 -88 -22 -216 36 -280
41 -45 154 -80 171 -53 3 5 -4 33 -16 63 -28 70 -30 215 -5 272 l17 38 31 -18
c64 -37 92 -163 65 -291 -19 -91 -107 -273 -210 -437 -102 -161 -100 -189 12
-221 43 -13 80 -15 157 -11 199 11 298 67 369 210 34 70 55 137 42 137 -3 0
-38 -11 -78 -24 -77 -26 -219 -50 -257 -44 -20 3 -17 11 49 113 152 235 231
435 215 543 -13 91 -75 165 -164 197 -52 18 -151 18 -208 0z"/>
<path d="M11655 4430 c-152 -20 -158 -23 -174 -58 -19 -41 -68 -238 -82 -328
-21 -141 -2 -161 121 -124 172 51 250 13 267 -129 16 -133 -109 -381 -192
-381 -35 0 -47 30 -53 129 -5 102 8 175 48 260 17 35 30 67 30 73 0 7 -18 9
-46 5 -88 -10 -207 -119 -234 -215 -14 -52 -12 -161 4 -215 20 -65 47 -99 108
-132 43 -23 66 -29 118 -29 83 -1 148 32 241 124 203 200 302 496 215 644 -61
105 -224 125 -378 46 -32 -16 -58 -25 -58 -20 0 5 11 34 24 65 l25 55 51 0
c28 0 66 7 85 15 78 32 198 178 181 220 -7 20 -131 18 -301 -5z"/>
<path d="M10910 4324 c-19 -2 -100 -11 -180 -20 -81 -9 -155 -22 -167 -30 -38
-24 -86 -131 -87 -194 l-1 -55 41 1 c29 0 81 19 170 62 114 54 151 67 176 63
3 0 -19 -79 -51 -173 l-58 -173 -39 -9 c-113 -25 -111 -24 -128 -66 -49 -122
-38 -170 39 -170 25 0 45 -2 45 -5 0 -2 -27 -74 -60 -159 -83 -214 -80 -243
24 -234 58 5 169 53 200 87 9 10 38 101 64 201 l48 182 48 23 c64 31 94 60
122 120 36 76 35 79 -40 72 l-65 -6 13 42 c7 23 37 118 65 210 53 168 58 209
26 221 -21 8 -162 15 -205 10z"/>
<path d="M10080 4214 c-19 -3 -94 -11 -167 -19 -73 -8 -144 -20 -158 -27 -51
-23 -123 -209 -95 -243 22 -26 62 -16 200 49 148 70 190 84 190 64 0 -7 -25
-88 -55 -179 l-56 -167 -72 -13 c-72 -14 -72 -14 -95 -61 -53 -112 -37 -173
45 -166 23 2 43 3 43 2 0 -1 -27 -72 -60 -158 -74 -190 -78 -207 -54 -231 39
-38 204 6 266 72 21 22 36 66 72 201 25 96 46 176 46 178 0 2 19 13 43 25 83
42 122 85 143 156 l14 46 -65 -5 c-36 -3 -65 -4 -65 -1 0 3 27 92 60 197 62
199 70 245 46 265 -15 13 -165 22 -226 15z"/>
<path d="M8660 4023 c-110 -39 -197 -123 -225 -217 -37 -124 4 -226 131 -326
l62 -50 -90 -87 c-103 -101 -136 -151 -144 -219 -9 -74 11 -132 60 -180 53
-50 110 -68 209 -63 140 8 292 111 369 253 30 55 33 69 33 146 0 105 -16 143
-98 223 l-59 58 29 35 c103 129 133 192 133 276 0 55 -19 99 -52 122 -33 23
-99 20 -138 -6 -51 -35 -57 -51 -32 -83 33 -42 30 -123 -7 -201 -16 -34 -34
-65 -41 -69 -15 -9 -65 38 -80 76 -7 16 -11 58 -8 97 5 94 39 159 96 187 23
11 41 24 39 30 -6 17 -138 15 -187 -2z m106 -670 c70 -45 88 -164 40 -268 -33
-73 -52 -95 -83 -95 -53 0 -86 125 -60 231 13 51 60 149 73 149 2 0 16 -7 30
-17z"/>
<path d="M8095 3922 c-27 -15 -109 -67 -182 -114 -119 -78 -133 -90 -142 -125
-14 -48 -14 -56 1 -88 14 -32 38 -32 94 1 24 14 44 21 44 15 0 -6 -15 -75 -34
-153 -57 -239 -126 -565 -126 -597 0 -33 33 -66 78 -76 70 -15 196 61 226 136
23 57 31 97 71 367 20 134 47 298 62 365 33 156 36 263 9 283 -28 20 -44 18
-101 -14z"/>
<path d="M7230 3850 c-178 -38 -329 -212 -292 -338 14 -47 81 -112 116 -112
21 0 25 7 35 58 21 105 93 232 132 232 28 0 42 -44 36 -115 -5 -68 -30 -125
-88 -201 -22 -28 -39 -58 -39 -67 0 -16 10 -20 82 -32 110 -17 139 -149 66
-293 -36 -71 -106 -151 -155 -176 -31 -16 -33 -15 -48 7 -48 74 -37 236 22
315 32 43 25 64 -19 55 -55 -10 -128 -52 -173 -99 -92 -94 -118 -211 -71 -308
66 -134 224 -165 400 -78 187 93 368 325 383 491 11 119 -52 187 -188 200
l-68 6 67 50 c87 65 117 117 116 200 -1 66 -17 106 -61 147 -55 53 -160 77
-253 58z"/>
</g>
</svg>
